name rise37.2698peak67.6939fall79.5734.mot
datacolumns 19
datarows 26
range 11.62495900000000 11.66662500000000
endheader
time	ground_force1_vx	ground_force1_vy	ground_force1_vz	ground_force1_px	ground_force1_py	ground_force1_pz	ground_force2_vx	ground_force2_vy	ground_force2_vz	ground_force2_px	ground_force2_py	ground_force2_pz	ground_torque1_x	ground_torque1_y	ground_torque1_z	ground_torque2_x	ground_torque2_y	ground_torque2_z	
11.62495900000000	-5.22017600000000	40.82571300000000	-10.33913500000000	0.32243400000000	0.00000000000000	0.04906300000000	-58.86053100000000	797.21161500000005	-58.42911700000000	0.10836400000000	0.00000000000000	-0.12306800000000	0.00000000000000	-7.05412100000000	0.00000000000000	0.00000000000000	-24.50645100000000	0.00000000000000	
11.62662300000000	-5.70987500000000	47.54849700000000	-11.66139700000000	0.32639600000000	0.00000000000000	0.04953600000000	-59.20766400000000	794.42801199999997	-58.16841500000000	0.10776200000000	0.00000000000000	-0.12301800000000	0.00000000000000	-8.00920800000000	0.00000000000000	0.00000000000000	-24.46195700000000	0.00000000000000	
11.62828900000000	-6.09456900000000	54.27671800000000	-12.87647800000000	0.33003500000000	0.00000000000000	0.04998800000000	-59.56305400000000	791.52157799999998	-57.88598600000000	0.10716200000000	0.00000000000000	-0.12296300000000	0.00000000000000	-8.89952200000000	0.00000000000000	0.00000000000000	-24.41757200000000	0.00000000000000	
11.62995600000000	-6.35910400000000	60.91752400000000	-13.95747900000000	0.33339600000000	0.00000000000000	0.05042000000000	-59.92644400000000	788.49091699999997	-57.58124000000000	0.10656400000000	0.00000000000000	-0.12290300000000	0.00000000000000	-9.70514200000000	0.00000000000000	0.00000000000000	-24.37321800000000	0.00000000000000	
11.63162700000000	-6.49416000000000	67.40274300000000	-14.88646800000000	0.33651800000000	0.00000000000000	0.05083500000000	-60.29751600000000	785.33466499999997	-57.25360500000000	0.10597000000000	0.00000000000000	-0.12283800000000	0.00000000000000	-10.41226800000000	0.00000000000000	0.00000000000000	-24.32880300000000	0.00000000000000	
11.63329500000000	-6.49617600000000	73.69073200000000	-15.65462500000000	0.33943100000000	0.00000000000000	0.05123600000000	-60.67588600000000	782.05149200000005	-56.90252900000000	0.10537800000000	0.00000000000000	-0.12276700000000	0.00000000000000	-11.01344400000000	0.00000000000000	0.00000000000000	-24.28422300000000	0.00000000000000	
11.63495600000000	-6.36683100000000	79.76573500000001	-16.26161500000000	0.34216100000000	0.00000000000000	0.05162400000000	-61.06110900000000	778.64010599999995	-56.52747800000000	0.10479100000000	0.00000000000000	-0.12269100000000	0.00000000000000	-11.50721500000000	0.00000000000000	0.00000000000000	-24.23935700000000	0.00000000000000	
11.63662600000000	-6.11217800000000	85.63521900000001	-16.71437100000000	0.34473100000000	0.00000000000000	0.05200000000000	-61.45267200000000	775.09925199999998	-56.12794900000000	0.10420700000000	0.00000000000000	-0.12260900000000	0.00000000000000	-11.89735200000000	0.00000000000000	0.00000000000000	-24.19407500000000	0.00000000000000	
11.63829500000000	-5.74158200000000	91.32576600000000	-17.02549300000000	0.34715700000000	0.00000000000000	0.05236500000000	-61.84999900000000	771.42772300000001	-55.70346300000000	0.10362900000000	0.00000000000000	-0.12252100000000	0.00000000000000	-12.19178300000000	0.00000000000000	0.00000000000000	-24.14823100000000	0.00000000000000	
11.63996100000000	-5.26656600000000	96.87810500000001	-17.21145600000000	0.34945500000000	0.00000000000000	0.05272200000000	-62.25244700000000	767.62435500000004	-55.25357700000000	0.10305500000000	0.00000000000000	-0.12242700000000	0.00000000000000	-12.40135500000000	0.00000000000000	0.00000000000000	-24.10166600000000	0.00000000000000	
11.64162700000000	-4.69968900000000	102.34184600000000	-17.29081500000000	0.35163800000000	0.00000000000000	0.05306900000000	-62.65930900000000	763.68803400000002	-54.77788200000000	0.10248700000000	0.00000000000000	-0.12232700000000	0.00000000000000	-12.53858200000000	0.00000000000000	0.00000000000000	-24.05420900000000	0.00000000000000	
11.64329100000000	-4.05353700000000	107.77040400000000	-17.28254800000000	0.35371600000000	0.00000000000000	0.05340900000000	-63.06981400000000	759.61770400000000	-54.27600900000000	0.10192600000000	0.00000000000000	-0.12222000000000	0.00000000000000	-12.61646100000000	0.00000000000000	0.00000000000000	-24.00567800000000	0.00000000000000	
11.64496100000000	-3.33988700000000	113.21647299999999	-17.20465100000000	0.35569900000000	0.00000000000000	0.05374100000000	-63.48312600000000	755.41236300000003	-53.74763200000000	0.10137100000000	0.00000000000000	-0.12210600000000	0.00000000000000	-12.64745800000000	0.00000000000000	0.00000000000000	-23.95587700000000	0.00000000000000	
11.64662100000000	-2.56908100000000	118.72832099999999	-17.07304700000000	0.35759300000000	0.00000000000000	0.05406700000000	-63.89834600000000	751.07107199999996	-53.19247000000000	0.10082300000000	0.00000000000000	-0.12198500000000	0.00000000000000	-12.64270400000000	0.00000000000000	0.00000000000000	-23.90460000000000	0.00000000000000	
11.64829600000000	-1.74962200000000	124.34704499999999	-16.90084100000000	0.35940600000000	0.00000000000000	0.05438700000000	-64.31451300000001	746.59295799999995	-52.61029200000000	0.10028200000000	0.00000000000000	-0.12185700000000	0.00000000000000	-12.61143200000000	0.00000000000000	0.00000000000000	-23.85162800000000	0.00000000000000	
11.64995400000000	-0.88798600000000	130.10481999999999	-16.69792100000000	0.36114300000000	0.00000000000000	0.05470100000000	-64.73060400000000	741.97721799999999	-52.00092300000000	0.09974900000000	0.00000000000000	-0.12172200000000	0.00000000000000	-12.56065600000000	0.00000000000000	0.00000000000000	-23.79673200000000	0.00000000000000	
11.65162600000000	0.01137900000000	136.02411300000000	-16.47086500000000	0.36280700000000	0.00000000000000	0.05500900000000	-65.14553700000000	737.22312099999999	-51.36423900000000	0.09922400000000	0.00000000000000	-0.12158000000000	0.00000000000000	-12.49507300000000	0.00000000000000	0.00000000000000	-23.73967600000000	0.00000000000000	
11.65328700000000	0.94590100000000	142.11772600000000	-16.22311600000000	0.36440300000000	0.00000000000000	0.05531300000000	-65.55817200000000	732.33001400000001	-50.70018000000000	0.09870700000000	0.00000000000000	-0.12143000000000	0.00000000000000	-12.41716000000000	0.00000000000000	0.00000000000000	-23.68021200000000	0.00000000000000	
11.65496000000000	1.91460600000000	148.38953000000001	-15.95535500000000	0.36593300000000	0.00000000000000	0.05561200000000	-65.96731400000000	727.29732799999999	-50.00874600000000	0.09819900000000	0.00000000000000	-0.12127300000000	0.00000000000000	-12.32741400000000	0.00000000000000	0.00000000000000	-23.61808400000000	0.00000000000000	
11.65663300000000	2.91777800000000	154.83569299999999	-15.66601000000000	0.36739900000000	0.00000000000000	0.05590600000000	-66.37171499999999	722.12457900000004	-49.29000300000000	0.09770000000000	0.00000000000000	-0.12110700000000	0.00000000000000	-12.22470200000000	0.00000000000000	0.00000000000000	-23.55302800000000	0.00000000000000	
11.65828900000000	3.95657600000000	161.44623600000000	-15.35184700000000	0.36880500000000	0.00000000000000	0.05619600000000	-66.77007300000000	716.81137200000001	-48.54408600000000	0.09721000000000	0.00000000000000	-0.12093400000000	0.00000000000000	-12.10666900000000	0.00000000000000	0.00000000000000	-23.48477600000000	0.00000000000000	
11.65995500000000	5.03265500000000	168.20672400000001	-15.00856600000000	0.37015000000000	0.00000000000000	0.05648200000000	-67.16104199999999	711.35741199999995	-47.77119800000000	0.09673000000000	0.00000000000000	-0.12075300000000	0.00000000000000	-11.97016300000000	0.00000000000000	0.00000000000000	-23.41305000000000	0.00000000000000	
11.66162100000000	6.14781600000000	175.09995200000000	-14.63137600000000	0.37143500000000	0.00000000000000	0.05676400000000	-67.54322700000000	705.76250200000004	-46.97161700000000	0.09625800000000	0.00000000000000	-0.12056400000000	0.00000000000000	-11.81164700000000	0.00000000000000	0.00000000000000	-23.33757100000000	0.00000000000000	
11.66329400000000	7.30370100000000	182.10749899999999	-14.21549800000000	0.37266300000000	0.00000000000000	0.05704200000000	-67.91519400000000	700.02655400000003	-46.14569400000000	0.09579600000000	0.00000000000000	-0.12036700000000	0.00000000000000	-11.62756000000000	0.00000000000000	0.00000000000000	-23.25805400000000	0.00000000000000	
11.66496300000000	8.50155400000000	189.21106300000000	-13.75657700000000	0.37383100000000	0.00000000000000	0.05731700000000	-68.27546900000000	694.14958999999999	-45.29385600000000	0.09534300000000	0.00000000000000	-0.12016200000000	0.00000000000000	-11.41462300000000	0.00000000000000	0.00000000000000	-23.17421100000000	0.00000000000000	
11.66662500000000	9.74204900000000	196.39352199999999	-13.25099200000000	0.37494200000000	0.00000000000000	0.05758800000000	-68.62254299999999	688.13175400000000	-44.41660800000000	0.09489900000000	0.00000000000000	-0.11994800000000	0.00000000000000	-11.17006800000000	0.00000000000000	0.00000000000000	-23.08575500000000	0.00000000000000	
